# xmcd CD database file
# Copyright (C) 1993-1996 Ti Kan
#
# Track frame offsets:
# 150
# 13877
# 27552
# 42447
# 57750
# 71865
# 85595
# 97955
# 113750
# 129470
#
# Disc length: 1899 seconds
#
# Revision: 0
# Processed by: cddbd v1.4b41PL1 Copyright (c) Steve Scherf et al.
# Submitted via: inCDius 1.1b5
#
DISCID=8207690a
DTITLE=Dottie West - TheBest Of Dottie West
DYEAR=1900
DGENRE=
TTITLE0=What Are We Doin' In Love
TTITLE1=It's High Time
TTITLE2='Til I Can Make It On My Own
TTITLE3=Leavin's For Unbelievers
TTITLE4=All I ever Need Is you
TTITLE5=A Lesson In Leavin'
TTITLE6=You Pick Me Up (And Put Me Down)
TTITLE7=Are You Happy Baby
TTITLE8=(I'm Gonna) Put You Back On The Rack
TTITLE9=Together Again
EXTD=
EXTT0=
EXTT1=
EXTT2=
EXTT3=
EXTT4=
EXTT5=
EXTT6=
EXTT7=
EXTT8=
EXTT9=
PLAYORDER=
